<?xml version="1.0" standalone="no"?>
<!DOCTYPE svg PUBLIC "-//W3C//DTD SVG 20010904//EN"
 "http://www.w3.org/TR/2001/REC-SVG-20010904/DTD/svg10.dtd">
<svg version="1.0" xmlns="http://www.w3.org/2000/svg"
 width="64.000000pt" height="64.000000pt" viewBox="0 0 64.000000 64.000000"
 preserveAspectRatio="xMidYMid meet">

<g transform="translate(0.000000,64.000000) scale(0.100000,-0.100000)"
fill="#000000" stroke="none">
<path d="M223 622 c-109 -39 -178 -112 -210 -221 -29 -102 4 -228 82 -306 122
-121 328 -121 450 0 91 92 118 241 64 356 -69 146 -241 223 -386 171z m-123
-257 c0 -24 5 -35 14 -35 8 0 17 -8 19 -17 3 -10 5 6 6 35 1 45 4 52 21 52 16
0 20 -7 21 -37 l1 -38 15 37 c14 34 19 37 51 35 31 -2 37 -7 47 -37 l13 -35 3
35 c4 33 6 35 46 38 36 3 42 0 49 -20 l7 -23 10 23 11 23 12 -22 c11 -22 12
-22 18 -2 5 17 16 21 56 22 38 0 50 -3 50 -14 0 -8 -8 -15 -17 -15 -15 0 -15
-1 1 -13 25 -19 13 -57 -18 -57 -18 0 -25 -7 -30 -31 -3 -17 -3 -42 0 -55 5
-20 2 -24 -16 -24 -12 0 -30 5 -41 10 -12 7 -19 7 -19 1 0 -6 -44 -9 -107 -8
-97 2 -108 4 -118 22 -13 26 -45 21 -45 -6 0 -14 -6 -19 -17 -17 -14 3 -18 14
-18 53 0 46 -2 50 -25 54 -32 4 -40 17 -40 64 0 30 4 37 20 37 16 0 20 -7 20
-35z"/>
<path d="M342 350 c0 -14 2 -19 5 -12 2 6 2 18 0 25 -3 6 -5 1 -5 -13z"/>
<path d="M483 335 c-9 -28 -8 -35 3 -35 8 0 14 6 14 14 0 8 4 16 9 18 5 2 4
11 -3 20 -12 16 -14 14 -23 -17z"/>
<path d="M216 325 c-4 -12 -3 -21 3 -23 6 -2 11 -18 11 -35 0 -24 6 -35 23
-43 22 -10 25 -7 39 33 12 34 13 43 2 43 -7 0 -16 10 -20 22 l-6 21 -12 -22
-12 -22 -10 22 c-10 22 -11 22 -18 4z"/>
<path d="M380 323 c0 -18 -6 -23 -24 -23 -23 0 -24 -2 -13 -36 l11 -37 7 28
c4 15 15 32 25 39 13 10 15 17 6 32 -11 18 -11 18 -12 -3z"/>
<path d="M430 300 c0 -13 18 -22 24 -11 3 5 -1 11 -9 15 -8 3 -15 1 -15 -4z"/>
<path d="M185 290 c3 -5 8 -10 11 -10 2 0 4 5 4 10 0 6 -5 10 -11 10 -5 0 -7
-4 -4 -10z"/>
<path d="M400 246 c0 -7 9 -16 20 -19 15 -4 20 0 20 14 0 12 -7 19 -20 19 -11
0 -20 -6 -20 -14z"/>
</g>
</svg>
